<mxfile host="app.diagrams.net"><diagram name="Database" id="db1">
  <mxGraphModel dx="1000" dy="1000" grid="1" gridSize="10" guides="1" tooltips="1" connect="1" arrows="1" fold="1" page="1" pageScale="1" pageWidth="827" pageHeight="1169" math="0" shadow="0">
    <root>
      <mxCell id="0"/>
      <mxCell id="1" parent="0"/>
      <mxCell id="2" value="users" style="swimlane;fillColor=#dae8fc;strokeColor=#6c8ebf;" vertex="1" parent="1">
        <mxGeometry x="60" y="60" width="220" height="160" as="geometry"/>
      </mxCell>
      <mxCell id="3" value="registers" style="swimlane;fillColor=#d5e8d4;strokeColor=#82b366;" vertex="1" parent="1">
        <mxGeometry x="340" y="60" width="260" height="180" as="geometry"/>
      </mxCell>
      <mxCell id="4" value="&lt;b&gt;name&lt;/b&gt;: String
&lt;b&gt;email&lt;/b&gt;: String (PK)
&lt;b&gt;password&lt;/b&gt;: String
&lt;b&gt;type&lt;/b&gt;: String" style="text;html=1;align=left;verticalAlign=top;spacingLeft=10;spacingTop=10;" vertex="1" parent="2">
        <mxGeometry x="0" y="40" width="220" height="120" as="geometry"/>
      </mxCell>
      <mxCell id="5" value="&lt;b&gt;user_id&lt;/b&gt;: String (FK)
&lt;b&gt;cep&lt;/b&gt;: String
&lt;b&gt;datetime&lt;/b&gt;: String
&lt;b&gt;intensity&lt;/b&gt;: Int
&lt;b&gt;evidence&lt;/b&gt;: String" style="text;html=1;align=left;verticalAlign=top;spacingLeft=10;spacingTop=10;" vertex="1" parent="3">
        <mxGeometry x="0" y="40" width="260" height="140" as="geometry"/>
      </mxCell>
      <mxCell id="6" style="edgeStyle=orthogonalEdgeStyle;rounded=0;orthogonalLoop=1;jettySize=auto;html=1;endArrow=block;endFill=1;strokeColor=#000000;" edge="1" parent="1" source="3" target="2">
        <mxGeometry relative="1" as="geometry"/>
      </mxCell>
    </root>
  </mxGraphModel>
</diagram></mxfile>
